<svg id="visual" viewBox="0 0 960 540" preserveAspectRatio="none" xmlns="http://www.w3.org/2000/svg" xmlns:xlink="http://www.w3.org/1999/xlink" version="1.1"><rect x="0" y="0" width="960" height="540" fill="#001220"></rect><path d="M0 316L26.7 317.7C53.3 319.3 106.7 322.7 160 329C213.3 335.3 266.7 344.7 320 347.7C373.3 350.7 426.7 347.3 480 348.2C533.3 349 586.7 354 640 363C693.3 372 746.7 385 800 383.2C853.3 381.3 906.7 364.7 933.3 356.3L960 348L960 541L933.3 541C906.7 541 853.3 541 800 541C746.7 541 693.3 541 640 541C586.7 541 533.3 541 480 541C426.7 541 373.3 541 320 541C266.7 541 213.3 541 160 541C106.7 541 53.3 541 26.7 541L0 541Z" fill="#5f9ea0"></path><path d="M0 395L26.7 389.5C53.3 384 106.7 373 160 370.5C213.3 368 266.7 374 320 375.5C373.3 377 426.7 374 480 381.2C533.3 388.3 586.7 405.7 640 408C693.3 410.3 746.7 397.7 800 392.8C853.3 388 906.7 391 933.3 392.5L960 394L960 541L933.3 541C906.7 541 853.3 541 800 541C746.7 541 693.3 541 640 541C586.7 541 533.3 541 480 541C426.7 541 373.3 541 320 541C266.7 541 213.3 541 160 541C106.7 541 53.3 541 26.7 541L0 541Z" fill="#28a290"></path><path d="M0 387L26.7 389.2C53.3 391.3 106.7 395.7 160 405.7C213.3 415.7 266.7 431.3 320 435C373.3 438.7 426.7 430.3 480 421C533.3 411.7 586.7 401.3 640 394.8C693.3 388.3 746.7 385.7 800 390.8C853.3 396 906.7 409 933.3 415.5L960 422L960 541L933.3 541C906.7 541 853.3 541 800 541C746.7 541 693.3 541 640 541C586.7 541 533.3 541 480 541C426.7 541 373.3 541 320 541C266.7 541 213.3 541 160 541C106.7 541 53.3 541 26.7 541L0 541Z" fill="#00a36c"></path><path d="M0 430L26.7 436.7C53.3 443.3 106.7 456.7 160 460.5C213.3 464.3 266.7 458.7 320 453.8C373.3 449 426.7 445 480 445.8C533.3 446.7 586.7 452.3 640 450.8C693.3 449.3 746.7 440.7 800 437.8C853.3 435 906.7 438 933.3 439.5L960 441L960 541L933.3 541C906.7 541 853.3 541 800 541C746.7 541 693.3 541 640 541C586.7 541 533.3 541 480 541C426.7 541 373.3 541 320 541C266.7 541 213.3 541 160 541C106.7 541 53.3 541 26.7 541L0 541Z" fill="#00a36c"></path><path d="M0 454L26.7 454.3C53.3 454.7 106.7 455.3 160 460.8C213.3 466.3 266.7 476.7 320 476.5C373.3 476.3 426.7 465.7 480 462.5C533.3 459.3 586.7 463.7 640 468.3C693.3 473 746.7 478 800 476.2C853.3 474.3 906.7 465.7 933.3 461.3L960 457L960 541L933.3 541C906.7 541 853.3 541 800 541C746.7 541 693.3 541 640 541C586.7 541 533.3 541 480 541C426.7 541 373.3 541 320 541C266.7 541 213.3 541 160 541C106.7 541 53.3 541 26.7 541L0 541Z" fill="#28a290"></path><path d="M0 517L26.7 512.5C53.3 508 106.7 499 160 496.8C213.3 494.7 266.7 499.3 320 499.8C373.3 500.3 426.7 496.7 480 494.7C533.3 492.7 586.7 492.3 640 491.7C693.3 491 746.7 490 800 494.3C853.3 498.7 906.7 508.3 933.3 513.2L960 518L960 541L933.3 541C906.7 541 853.3 541 800 541C746.7 541 693.3 541 640 541C586.7 541 533.3 541 480 541C426.7 541 373.3 541 320 541C266.7 541 213.3 541 160 541C106.7 541 53.3 541 26.7 541L0 541Z" fill="#5f9ea0"></path></svg>